STARTFONT 2.1
FONT -FontForge-Jersey 20-Book-R-Normal--10-100-75-75-P-40-ISO10646-1
SIZE 10 75 75
FONTBOUNDINGBOX 12 12 -2 -3
COMMENT "Generated by fontforge, http://fontforge.sourceforge.net"
COMMENT "Copyright 2023 The Soft Type Project Authors (https://github.com/scfried/soft-type-jersey)"
STARTPROPERTIES 39
FOUNDRY "FontForge"
FAMILY_NAME "Jersey 20"
WEIGHT_NAME "Book"
SLANT "R"
SETWIDTH_NAME "Normal"
ADD_STYLE_NAME ""
PIXEL_SIZE 10
POINT_SIZE 100
RESOLUTION_X 75
RESOLUTION_Y 75
SPACING "P"
AVERAGE_WIDTH 40
CHARSET_REGISTRY "ISO10646"
CHARSET_ENCODING "1"
FONTNAME_REGISTRY ""
CHARSET_COLLECTIONS "ISO8859-2 ISO8859-9 ISO8859-4 ISO10646-1"
FONT_NAME "Jersey20-Regular"
FACE_NAME "Jersey 20 Regular"
COPYRIGHT "Copyright 2023 The Soft Type Project Authors (https://github.com/scfried/soft-type-jersey)"
FONT_VERSION "1.001; ttfautohint (v1.8.4.7-5d5b)"
FONT_ASCENT 8
FONT_DESCENT 2
UNDERLINE_POSITION -1
UNDERLINE_THICKNESS 1
X_HEIGHT 4
CAP_HEIGHT 6
RAW_ASCENT 794
RAW_DESCENT 205
NORM_SPACE 2
RELATIVE_WEIGHT 40
RELATIVE_SETWIDTH 50
SUPERSCRIPT_X 0
SUPERSCRIPT_Y 3
SUPERSCRIPT_SIZE 5
SUBSCRIPT_X 0
SUBSCRIPT_Y 0
SUBSCRIPT_SIZE 5
AVG_LOWERCASE_WIDTH 44
AVG_UPPERCASE_WIDTH 47
ENDPROPERTIES
CHARS 359
STARTCHAR space
ENCODING 32
SWIDTH 205 0
DWIDTH 2 0
BBX 1 1 0 0
BITMAP
00
ENDCHAR
STARTCHAR exclam
ENCODING 33
SWIDTH 205 0
DWIDTH 2 0
BBX 1 7 0 0
BITMAP
80
80
80
80
80
00
80
ENDCHAR
STARTCHAR quotedbl
ENCODING 34
SWIDTH 352 0
DWIDTH 4 0
BBX 3 2 0 5
BITMAP
A0
A0
ENDCHAR
STARTCHAR numbersign
ENCODING 35
SWIDTH 647 0
DWIDTH 6 0
BBX 6 7 0 0
BITMAP
2C
28
7C
48
F8
50
50
ENDCHAR
STARTCHAR dollar
ENCODING 36
SWIDTH 500 0
DWIDTH 5 0
BBX 4 8 0 -1
BITMAP
70
90
A0
70
30
B0
70
20
ENDCHAR
STARTCHAR percent
ENCODING 37
SWIDTH 647 0
DWIDTH 6 0
BBX 6 7 0 0
BITMAP
48
B0
70
10
2C
34
48
ENDCHAR
STARTCHAR ampersand
ENCODING 38
SWIDTH 617 0
DWIDTH 6 0
BBX 6 7 0 0
BITMAP
60
50
70
78
58
D8
6C
ENDCHAR
STARTCHAR quotesingle
ENCODING 39
SWIDTH 205 0
DWIDTH 2 0
BBX 1 2 0 5
BITMAP
80
80
ENDCHAR
STARTCHAR parenleft
ENCODING 40
SWIDTH 294 0
DWIDTH 3 0
BBX 2 8 0 -1
BITMAP
40
80
80
80
80
80
80
40
ENDCHAR
STARTCHAR parenright
ENCODING 41
SWIDTH 294 0
DWIDTH 3 0
BBX 2 8 0 -1
BITMAP
80
40
40
40
40
40
40
C0
ENDCHAR
STARTCHAR asterisk
ENCODING 42
SWIDTH 382 0
DWIDTH 4 0
BBX 3 3 0 4
BITMAP
E0
40
60
ENDCHAR
STARTCHAR plus
ENCODING 43
SWIDTH 470 0
DWIDTH 5 0
BBX 4 4 0 1
BITMAP
20
F0
20
20
ENDCHAR
STARTCHAR comma
ENCODING 44
SWIDTH 205 0
DWIDTH 2 0
BBX 1 2 0 -1
BITMAP
80
80
ENDCHAR
STARTCHAR hyphen
ENCODING 45
SWIDTH 441 0
DWIDTH 4 0
BBX 4 1 0 3
BITMAP
F0
ENDCHAR
STARTCHAR period
ENCODING 46
SWIDTH 205 0
DWIDTH 2 0
BBX 1 1 0 0
BITMAP
80
ENDCHAR
STARTCHAR slash
ENCODING 47
SWIDTH 382 0
DWIDTH 4 0
BBX 3 7 0 -1
BITMAP
20
20
60
40
40
40
80
ENDCHAR
STARTCHAR zero
ENCODING 48
SWIDTH 441 0
DWIDTH 4 0
BBX 4 7 0 0
BITMAP
60
F0
90
90
90
F0
70
ENDCHAR
STARTCHAR one
ENCODING 49
SWIDTH 294 0
DWIDTH 3 0
BBX 2 7 0 0
BITMAP
C0
40
40
40
40
40
40
ENDCHAR
STARTCHAR two
ENCODING 50
SWIDTH 470 0
DWIDTH 5 0
BBX 4 7 0 0
BITMAP
60
D0
10
20
60
C0
F0
ENDCHAR
STARTCHAR three
ENCODING 51
SWIDTH 470 0
DWIDTH 5 0
BBX 4 7 0 0
BITMAP
60
D0
10
70
10
D0
70
ENDCHAR
STARTCHAR four
ENCODING 52
SWIDTH 441 0
DWIDTH 4 0
BBX 4 7 0 0
BITMAP
10
30
50
D0
F0
10
10
ENDCHAR
STARTCHAR five
ENCODING 53
SWIDTH 470 0
DWIDTH 5 0
BBX 4 7 0 0
BITMAP
F0
80
80
F0
10
D0
70
ENDCHAR
STARTCHAR six
ENCODING 54
SWIDTH 470 0
DWIDTH 5 0
BBX 4 7 0 0
BITMAP
60
D0
80
F0
D0
D0
70
ENDCHAR
STARTCHAR seven
ENCODING 55
SWIDTH 441 0
DWIDTH 4 0
BBX 4 7 0 0
BITMAP
F0
10
30
30
20
60
60
ENDCHAR
STARTCHAR eight
ENCODING 56
SWIDTH 470 0
DWIDTH 5 0
BBX 4 7 0 0
BITMAP
60
D0
90
70
D0
D0
70
ENDCHAR
STARTCHAR nine
ENCODING 57
SWIDTH 470 0
DWIDTH 5 0
BBX 4 7 0 0
BITMAP
60
D0
90
70
10
D0
70
ENDCHAR
STARTCHAR colon
ENCODING 58
SWIDTH 205 0
DWIDTH 2 0
BBX 1 5 0 0
BITMAP
80
00
00
00
80
ENDCHAR
STARTCHAR semicolon
ENCODING 59
SWIDTH 205 0
DWIDTH 2 0
BBX 1 6 0 -1
BITMAP
80
00
00
00
80
80
ENDCHAR
STARTCHAR less
ENCODING 60
SWIDTH 441 0
DWIDTH 4 0
BBX 4 4 0 2
BITMAP
10
60
C0
30
ENDCHAR
STARTCHAR equal
ENCODING 61
SWIDTH 470 0
DWIDTH 5 0
BBX 4 3 0 2
BITMAP
F0
00
F0
ENDCHAR
STARTCHAR greater
ENCODING 62
SWIDTH 441 0
DWIDTH 4 0
BBX 4 4 0 2
BITMAP
80
60
30
C0
ENDCHAR
STARTCHAR question
ENCODING 63
SWIDTH 441 0
DWIDTH 4 0
BBX 4 7 0 0
BITMAP
60
90
30
60
20
00
60
ENDCHAR
STARTCHAR at
ENCODING 64
SWIDTH 705 0
DWIDTH 7 0
BBX 6 7 0 0
BITMAP
7C
84
BC
AC
AC
9C
7C
ENDCHAR
STARTCHAR A
ENCODING 65
SWIDTH 470 0
DWIDTH 5 0
BBX 4 7 0 0
BITMAP
20
70
D0
90
F0
90
90
ENDCHAR
STARTCHAR B
ENCODING 66
SWIDTH 470 0
DWIDTH 5 0
BBX 4 7 0 0
BITMAP
E0
90
90
F0
90
90
F0
ENDCHAR
STARTCHAR C
ENCODING 67
SWIDTH 470 0
DWIDTH 5 0
BBX 4 7 0 0
BITMAP
60
D0
80
80
80
D0
70
ENDCHAR
STARTCHAR D
ENCODING 68
SWIDTH 470 0
DWIDTH 5 0
BBX 4 7 0 0
BITMAP
E0
90
90
90
90
90
F0
ENDCHAR
STARTCHAR E
ENCODING 69
SWIDTH 441 0
DWIDTH 4 0
BBX 4 7 0 0
BITMAP
F0
80
80
E0
80
80
F0
ENDCHAR
STARTCHAR F
ENCODING 70
SWIDTH 411 0
DWIDTH 4 0
BBX 4 7 0 0
BITMAP
F0
80
80
E0
80
80
80
ENDCHAR
STARTCHAR G
ENCODING 71
SWIDTH 470 0
DWIDTH 5 0
BBX 4 7 0 0
BITMAP
60
D0
80
B0
90
D0
70
ENDCHAR
STARTCHAR H
ENCODING 72
SWIDTH 470 0
DWIDTH 5 0
BBX 4 7 0 0
BITMAP
90
90
90
F0
90
90
90
ENDCHAR
STARTCHAR I
ENCODING 73
SWIDTH 205 0
DWIDTH 2 0
BBX 1 7 0 0
BITMAP
80
80
80
80
80
80
80
ENDCHAR
STARTCHAR J
ENCODING 74
SWIDTH 441 0
DWIDTH 4 0
BBX 4 7 0 0
BITMAP
10
10
10
10
10
F0
70
ENDCHAR
STARTCHAR K
ENCODING 75
SWIDTH 441 0
DWIDTH 4 0
BBX 4 7 0 0
BITMAP
90
90
B0
E0
B0
90
90
ENDCHAR
STARTCHAR L
ENCODING 76
SWIDTH 382 0
DWIDTH 4 0
BBX 3 7 0 0
BITMAP
80
80
80
80
80
80
E0
ENDCHAR
STARTCHAR M
ENCODING 77
SWIDTH 647 0
DWIDTH 6 0
BBX 6 7 0 0
BITMAP
84
CC
FC
B4
84
84
84
ENDCHAR
STARTCHAR N
ENCODING 78
SWIDTH 529 0
DWIDTH 5 0
BBX 5 7 0 0
BITMAP
C8
C8
E8
A8
B8
98
98
ENDCHAR
STARTCHAR O
ENCODING 79
SWIDTH 470 0
DWIDTH 5 0
BBX 4 7 0 0
BITMAP
60
D0
90
90
90
D0
70
ENDCHAR
STARTCHAR P
ENCODING 80
SWIDTH 470 0
DWIDTH 5 0
BBX 4 7 0 0
BITMAP
E0
90
90
90
F0
80
80
ENDCHAR
STARTCHAR Q
ENCODING 81
SWIDTH 470 0
DWIDTH 5 0
BBX 4 8 0 -1
BITMAP
60
D0
90
90
90
D0
70
30
ENDCHAR
STARTCHAR R
ENCODING 82
SWIDTH 470 0
DWIDTH 5 0
BBX 4 7 0 0
BITMAP
E0
90
90
90
F0
90
90
ENDCHAR
STARTCHAR S
ENCODING 83
SWIDTH 500 0
DWIDTH 5 0
BBX 4 7 0 0
BITMAP
70
D0
80
70
10
D0
70
ENDCHAR
STARTCHAR T
ENCODING 84
SWIDTH 441 0
DWIDTH 4 0
BBX 4 7 0 0
BITMAP
F0
60
60
60
60
60
60
ENDCHAR
STARTCHAR U
ENCODING 85
SWIDTH 470 0
DWIDTH 5 0
BBX 4 7 0 0
BITMAP
90
90
90
90
90
D0
70
ENDCHAR
STARTCHAR V
ENCODING 86
SWIDTH 470 0
DWIDTH 5 0
BBX 4 7 0 0
BITMAP
90
90
90
90
90
70
60
ENDCHAR
STARTCHAR W
ENCODING 87
SWIDTH 617 0
DWIDTH 6 0
BBX 6 7 0 0
BITMAP
BC
BC
BC
BC
BC
78
48
ENDCHAR
STARTCHAR X
ENCODING 88
SWIDTH 470 0
DWIDTH 5 0
BBX 4 7 0 0
BITMAP
90
90
70
60
70
D0
90
ENDCHAR
STARTCHAR Y
ENCODING 89
SWIDTH 500 0
DWIDTH 5 0
BBX 4 7 0 0
BITMAP
90
90
90
50
60
20
20
ENDCHAR
STARTCHAR Z
ENCODING 90
SWIDTH 500 0
DWIDTH 5 0
BBX 4 7 0 0
BITMAP
F0
10
10
20
40
C0
F0
ENDCHAR
STARTCHAR bracketleft
ENCODING 91
SWIDTH 323 0
DWIDTH 3 0
BBX 3 8 0 -1
BITMAP
E0
80
80
80
80
80
80
E0
ENDCHAR
STARTCHAR backslash
ENCODING 92
SWIDTH 382 0
DWIDTH 4 0
BBX 3 7 0 -1
BITMAP
80
40
40
40
60
20
20
ENDCHAR
STARTCHAR bracketright
ENCODING 93
SWIDTH 323 0
DWIDTH 3 0
BBX 3 8 0 -1
BITMAP
E0
60
60
60
60
60
60
E0
ENDCHAR
STARTCHAR asciicircum
ENCODING 94
SWIDTH 500 0
DWIDTH 5 0
BBX 4 3 0 4
BITMAP
20
70
D0
ENDCHAR
STARTCHAR underscore
ENCODING 95
SWIDTH 470 0
DWIDTH 5 0
BBX 4 1 0 -1
BITMAP
F0
ENDCHAR
STARTCHAR grave
ENCODING 96
SWIDTH 235 0
DWIDTH 2 0
BBX 2 2 0 6
BITMAP
80
40
ENDCHAR
STARTCHAR a
ENCODING 97
SWIDTH 470 0
DWIDTH 5 0
BBX 4 5 0 0
BITMAP
70
90
70
90
70
ENDCHAR
STARTCHAR b
ENCODING 98
SWIDTH 470 0
DWIDTH 5 0
BBX 4 7 0 0
BITMAP
80
80
F0
90
90
90
E0
ENDCHAR
STARTCHAR c
ENCODING 99
SWIDTH 441 0
DWIDTH 4 0
BBX 4 5 0 0
BITMAP
70
90
80
90
60
ENDCHAR
STARTCHAR d
ENCODING 100
SWIDTH 470 0
DWIDTH 5 0
BBX 4 7 0 0
BITMAP
10
10
70
90
90
90
70
ENDCHAR
STARTCHAR e
ENCODING 101
SWIDTH 441 0
DWIDTH 4 0
BBX 4 5 0 0
BITMAP
70
90
F0
90
60
ENDCHAR
STARTCHAR f
ENCODING 102
SWIDTH 323 0
DWIDTH 3 0
BBX 3 7 0 0
BITMAP
60
40
E0
40
40
40
40
ENDCHAR
STARTCHAR g
ENCODING 103
SWIDTH 470 0
DWIDTH 5 0
BBX 4 7 0 -2
BITMAP
70
90
90
90
70
90
70
ENDCHAR
STARTCHAR h
ENCODING 104
SWIDTH 470 0
DWIDTH 5 0
BBX 4 7 0 0
BITMAP
80
80
F0
90
90
90
90
ENDCHAR
STARTCHAR i
ENCODING 105
SWIDTH 205 0
DWIDTH 2 0
BBX 1 7 0 0
BITMAP
80
00
80
80
80
80
80
ENDCHAR
STARTCHAR j
ENCODING 106
SWIDTH 235 0
DWIDTH 2 0
BBX 2 8 0 -2
BITMAP
40
00
40
40
40
40
40
80
ENDCHAR
STARTCHAR k
ENCODING 107
SWIDTH 411 0
DWIDTH 4 0
BBX 4 7 0 0
BITMAP
80
80
B0
B0
E0
B0
B0
ENDCHAR
STARTCHAR l
ENCODING 108
SWIDTH 205 0
DWIDTH 2 0
BBX 1 7 0 0
BITMAP
80
80
80
80
80
80
80
ENDCHAR
STARTCHAR m
ENCODING 109
SWIDTH 617 0
DWIDTH 6 0
BBX 6 5 0 0
BITMAP
F8
BC
BC
BC
BC
ENDCHAR
STARTCHAR n
ENCODING 110
SWIDTH 470 0
DWIDTH 5 0
BBX 4 5 0 0
BITMAP
F0
90
90
90
90
ENDCHAR
STARTCHAR o
ENCODING 111
SWIDTH 470 0
DWIDTH 5 0
BBX 4 5 0 0
BITMAP
70
90
90
90
60
ENDCHAR
STARTCHAR p
ENCODING 112
SWIDTH 470 0
DWIDTH 5 0
BBX 4 7 0 -2
BITMAP
A0
D0
90
90
F0
80
80
ENDCHAR
STARTCHAR q
ENCODING 113
SWIDTH 470 0
DWIDTH 5 0
BBX 4 7 0 -2
BITMAP
70
90
90
90
70
10
10
ENDCHAR
STARTCHAR r
ENCODING 114
SWIDTH 352 0
DWIDTH 4 0
BBX 4 5 0 0
BITMAP
F0
A0
80
80
80
ENDCHAR
STARTCHAR s
ENCODING 115
SWIDTH 470 0
DWIDTH 5 0
BBX 4 5 0 0
BITMAP
70
90
70
90
60
ENDCHAR
STARTCHAR t
ENCODING 116
SWIDTH 352 0
DWIDTH 4 0
BBX 3 7 0 0
BITMAP
40
40
E0
40
40
40
20
ENDCHAR
STARTCHAR u
ENCODING 117
SWIDTH 470 0
DWIDTH 5 0
BBX 4 5 0 0
BITMAP
90
90
90
90
70
ENDCHAR
STARTCHAR v
ENCODING 118
SWIDTH 470 0
DWIDTH 5 0
BBX 4 5 0 0
BITMAP
90
90
90
70
60
ENDCHAR
STARTCHAR w
ENCODING 119
SWIDTH 617 0
DWIDTH 6 0
BBX 6 5 0 0
BITMAP
BC
BC
BC
FC
48
ENDCHAR
STARTCHAR x
ENCODING 120
SWIDTH 470 0
DWIDTH 5 0
BBX 4 5 0 0
BITMAP
90
50
60
70
90
ENDCHAR
STARTCHAR y
ENCODING 121
SWIDTH 470 0
DWIDTH 5 0
BBX 4 7 0 -2
BITMAP
90
90
90
70
60
40
80
ENDCHAR
STARTCHAR z
ENCODING 122
SWIDTH 441 0
DWIDTH 4 0
BBX 4 5 0 0
BITMAP
F0
30
60
40
F0
ENDCHAR
STARTCHAR braceleft
ENCODING 123
SWIDTH 294 0
DWIDTH 3 0
BBX 2 9 0 -2
BITMAP
40
40
40
40
80
40
40
40
40
ENDCHAR
STARTCHAR bar
ENCODING 124
SWIDTH 352 0
DWIDTH 4 0
BBX 1 8 1 -1
BITMAP
80
80
80
80
80
80
80
80
ENDCHAR
STARTCHAR braceright
ENCODING 125
SWIDTH 294 0
DWIDTH 3 0
BBX 2 8 0 -1
BITMAP
C0
40
40
40
40
40
40
80
ENDCHAR
STARTCHAR asciitilde
ENCODING 126
SWIDTH 558 0
DWIDTH 6 0
BBX 5 3 0 2
BITMAP
70
F8
50
ENDCHAR
STARTCHAR uni00A0
ENCODING 160
SWIDTH 205 0
DWIDTH 2 0
BBX 1 1 0 0
BITMAP
00
ENDCHAR
STARTCHAR exclamdown
ENCODING 161
SWIDTH 205 0
DWIDTH 2 0
BBX 1 7 0 0
BITMAP
80
00
80
80
80
80
80
ENDCHAR
STARTCHAR cent
ENCODING 162
SWIDTH 470 0
DWIDTH 5 0
BBX 4 6 0 0
BITMAP
20
70
B0
A0
70
20
ENDCHAR
STARTCHAR sterling
ENCODING 163
SWIDTH 500 0
DWIDTH 5 0
BBX 4 7 0 0
BITMAP
30
50
40
F0
40
40
F0
ENDCHAR
STARTCHAR yen
ENCODING 165
SWIDTH 500 0
DWIDTH 5 0
BBX 4 7 0 0
BITMAP
90
90
50
60
F0
F0
20
ENDCHAR
STARTCHAR section
ENCODING 167
SWIDTH 441 0
DWIDTH 4 0
BBX 4 8 0 -1
BITMAP
60
90
40
70
90
70
90
60
ENDCHAR
STARTCHAR dieresis
ENCODING 168
SWIDTH 352 0
DWIDTH 4 0
BBX 3 1 0 6
BITMAP
A0
ENDCHAR
STARTCHAR copyright
ENCODING 169
SWIDTH 735 0
DWIDTH 7 0
BBX 7 7 0 0
BITMAP
7C
9A
AA
A2
BA
82
7C
ENDCHAR
STARTCHAR ordfeminine
ENCODING 170
SWIDTH 470 0
DWIDTH 5 0
BBX 4 4 0 0
BITMAP
F0
10
F0
70
ENDCHAR
STARTCHAR guillemotleft
ENCODING 171
SWIDTH 529 0
DWIDTH 5 0
BBX 5 4 0 1
BITMAP
68
B0
50
28
ENDCHAR
STARTCHAR registered
ENCODING 174
SWIDTH 529 0
DWIDTH 5 0
BBX 5 5 0 2
BITMAP
70
A8
A8
A8
70
ENDCHAR
STARTCHAR macron
ENCODING 175
SWIDTH 294 0
DWIDTH 3 0
BBX 3 1 0 6
BITMAP
E0
ENDCHAR
STARTCHAR degree
ENCODING 176
SWIDTH 352 0
DWIDTH 4 0
BBX 3 3 0 4
BITMAP
60
A0
40
ENDCHAR
STARTCHAR acute
ENCODING 180
SWIDTH 235 0
DWIDTH 2 0
BBX 2 2 0 6
BITMAP
40
80
ENDCHAR
STARTCHAR paragraph
ENCODING 182
SWIDTH 470 0
DWIDTH 5 0
BBX 4 7 0 0
BITMAP
70
F0
70
30
30
30
30
ENDCHAR
STARTCHAR periodcentered
ENCODING 183
SWIDTH 205 0
DWIDTH 2 0
BBX 1 1 0 3
BITMAP
80
ENDCHAR
STARTCHAR cedilla
ENCODING 184
SWIDTH 235 0
DWIDTH 2 0
BBX 2 2 0 -2
BITMAP
40
80
ENDCHAR
STARTCHAR ordmasculine
ENCODING 186
SWIDTH 470 0
DWIDTH 5 0
BBX 4 5 0 0
BITMAP
70
90
90
90
70
ENDCHAR
STARTCHAR guillemotright
ENCODING 187
SWIDTH 529 0
DWIDTH 5 0
BBX 5 4 0 1
BITMAP
B0
68
50
A0
ENDCHAR
STARTCHAR questiondown
ENCODING 191
SWIDTH 441 0
DWIDTH 4 0
BBX 4 7 0 0
BITMAP
60
00
20
60
C0
F0
70
ENDCHAR
STARTCHAR Agrave
ENCODING 192
SWIDTH 470 0
DWIDTH 5 0
BBX 4 9 0 0
BITMAP
40
20
20
70
D0
90
F0
90
90
ENDCHAR
STARTCHAR Aacute
ENCODING 193
SWIDTH 470 0
DWIDTH 5 0
BBX 4 9 0 0
BITMAP
20
20
20
70
D0
90
F0
90
90
ENDCHAR
STARTCHAR Acircumflex
ENCODING 194
SWIDTH 470 0
DWIDTH 5 0
BBX 4 9 0 0
BITMAP
20
60
20
70
D0
90
F0
90
90
ENDCHAR
STARTCHAR Atilde
ENCODING 195
SWIDTH 470 0
DWIDTH 5 0
BBX 4 8 0 0
BITMAP
70
20
70
D0
90
F0
90
90
ENDCHAR
STARTCHAR Adieresis
ENCODING 196
SWIDTH 470 0
DWIDTH 5 0
BBX 4 8 0 0
BITMAP
70
20
70
D0
90
F0
90
90
ENDCHAR
STARTCHAR Aring
ENCODING 197
SWIDTH 470 0
DWIDTH 5 0
BBX 4 9 0 0
BITMAP
20
60
20
70
D0
90
F0
90
90
ENDCHAR
STARTCHAR AE
ENCODING 198
SWIDTH 676 0
DWIDTH 7 0
BBX 6 7 0 0
BITMAP
3C
70
D0
9C
F0
90
9C
ENDCHAR
STARTCHAR Ccedilla
ENCODING 199
SWIDTH 470 0
DWIDTH 5 0
BBX 4 9 0 -2
BITMAP
60
50
90
80
80
D0
70
20
60
ENDCHAR
STARTCHAR Egrave
ENCODING 200
SWIDTH 441 0
DWIDTH 4 0
BBX 4 9 0 0
BITMAP
40
20
F0
80
80
E0
80
80
F0
ENDCHAR
STARTCHAR Eacute
ENCODING 201
SWIDTH 441 0
DWIDTH 4 0
BBX 4 9 0 0
BITMAP
20
40
F0
80
80
E0
80
80
F0
ENDCHAR
STARTCHAR Ecircumflex
ENCODING 202
SWIDTH 441 0
DWIDTH 4 0
BBX 4 8 0 0
BITMAP
60
F0
80
80
E0
80
80
F0
ENDCHAR
STARTCHAR Edieresis
ENCODING 203
SWIDTH 441 0
DWIDTH 4 0
BBX 4 8 0 0
BITMAP
70
F0
80
80
E0
80
80
F0
ENDCHAR
STARTCHAR Igrave
ENCODING 204
SWIDTH 205 0
DWIDTH 2 0
BBX 2 9 0 0
BITMAP
80
40
80
80
80
80
80
80
80
ENDCHAR
STARTCHAR Iacute
ENCODING 205
SWIDTH 205 0
DWIDTH 2 0
BBX 2 9 0 0
BITMAP
40
80
80
80
80
80
80
80
80
ENDCHAR
STARTCHAR Icircumflex
ENCODING 206
SWIDTH 205 0
DWIDTH 2 0
BBX 2 8 0 0
BITMAP
C0
80
80
80
80
80
80
80
ENDCHAR
STARTCHAR Idieresis
ENCODING 207
SWIDTH 205 0
DWIDTH 2 0
BBX 3 8 -1 0
BITMAP
E0
40
40
40
40
40
40
40
ENDCHAR
STARTCHAR Eth
ENCODING 208
SWIDTH 500 0
DWIDTH 5 0
BBX 4 7 0 0
BITMAP
70
50
50
F0
50
50
70
ENDCHAR
STARTCHAR Ntilde
ENCODING 209
SWIDTH 529 0
DWIDTH 5 0
BBX 5 8 0 0
BITMAP
70
C8
C8
E8
A8
B8
98
98
ENDCHAR
STARTCHAR Ograve
ENCODING 210
SWIDTH 470 0
DWIDTH 5 0
BBX 4 9 0 0
BITMAP
20
20
60
D0
90
90
90
D0
70
ENDCHAR
STARTCHAR Oacute
ENCODING 211
SWIDTH 470 0
DWIDTH 5 0
BBX 4 9 0 0
BITMAP
20
20
60
D0
90
90
90
D0
70
ENDCHAR
STARTCHAR Ocircumflex
ENCODING 212
SWIDTH 470 0
DWIDTH 5 0
BBX 4 9 0 0
BITMAP
20
60
60
D0
90
90
90
D0
70
ENDCHAR
STARTCHAR Otilde
ENCODING 213
SWIDTH 470 0
DWIDTH 5 0
BBX 4 8 0 0
BITMAP
70
60
D0
90
90
90
D0
70
ENDCHAR
STARTCHAR Odieresis
ENCODING 214
SWIDTH 470 0
DWIDTH 5 0
BBX 4 8 0 0
BITMAP
70
60
D0
90
90
90
D0
70
ENDCHAR
STARTCHAR multiply
ENCODING 215
SWIDTH 441 0
DWIDTH 4 0
BBX 4 4 0 1
BITMAP
90
60
60
90
ENDCHAR
STARTCHAR Oslash
ENCODING 216
SWIDTH 588 0
DWIDTH 6 0
BBX 6 7 0 0
BITMAP
34
58
58
68
48
48
F0
ENDCHAR
STARTCHAR Ugrave
ENCODING 217
SWIDTH 470 0
DWIDTH 5 0
BBX 4 9 0 0
BITMAP
20
20
90
90
90
90
90
D0
70
ENDCHAR
STARTCHAR Uacute
ENCODING 218
SWIDTH 470 0
DWIDTH 5 0
BBX 4 9 0 0
BITMAP
20
20
90
90
90
90
90
D0
70
ENDCHAR
STARTCHAR Ucircumflex
ENCODING 219
SWIDTH 470 0
DWIDTH 5 0
BBX 4 9 0 0
BITMAP
20
60
90
90
90
90
90
D0
70
ENDCHAR
STARTCHAR Udieresis
ENCODING 220
SWIDTH 470 0
DWIDTH 5 0
BBX 4 9 0 0
BITMAP
70
00
90
90
90
90
90
D0
70
ENDCHAR
STARTCHAR Yacute
ENCODING 221
SWIDTH 500 0
DWIDTH 5 0
BBX 4 9 0 0
BITMAP
20
20
90
90
90
50
60
20
20
ENDCHAR
STARTCHAR Thorn
ENCODING 222
SWIDTH 470 0
DWIDTH 5 0
BBX 4 7 0 0
BITMAP
80
80
F0
90
F0
80
80
ENDCHAR
STARTCHAR germandbls
ENCODING 223
SWIDTH 470 0
DWIDTH 5 0
BBX 4 7 0 0
BITMAP
70
D0
90
B0
90
90
B0
ENDCHAR
STARTCHAR agrave
ENCODING 224
SWIDTH 470 0
DWIDTH 5 0
BBX 4 7 0 0
BITMAP
60
00
70
90
70
90
70
ENDCHAR
STARTCHAR aacute
ENCODING 225
SWIDTH 470 0
DWIDTH 5 0
BBX 4 7 0 0
BITMAP
60
00
70
90
70
90
70
ENDCHAR
STARTCHAR acircumflex
ENCODING 226
SWIDTH 470 0
DWIDTH 5 0
BBX 4 7 0 0
BITMAP
60
00
70
90
70
90
70
ENDCHAR
STARTCHAR atilde
ENCODING 227
SWIDTH 470 0
DWIDTH 5 0
BBX 4 7 0 0
BITMAP
70
00
70
90
70
90
70
ENDCHAR
STARTCHAR adieresis
ENCODING 228
SWIDTH 470 0
DWIDTH 5 0
BBX 4 7 0 0
BITMAP
70
00
70
90
70
90
70
ENDCHAR
STARTCHAR aring
ENCODING 229
SWIDTH 470 0
DWIDTH 5 0
BBX 4 8 0 0
BITMAP
20
60
00
70
90
70
90
70
ENDCHAR
STARTCHAR ae
ENCODING 230
SWIDTH 735 0
DWIDTH 7 0
BBX 7 5 0 0
BITMAP
7C
92
7E
92
7C
ENDCHAR
STARTCHAR ccedilla
ENCODING 231
SWIDTH 441 0
DWIDTH 4 0
BBX 4 7 0 -2
BITMAP
60
90
80
80
70
40
60
ENDCHAR
STARTCHAR egrave
ENCODING 232
SWIDTH 441 0
DWIDTH 4 0
BBX 4 7 0 0
BITMAP
60
00
70
90
F0
90
60
ENDCHAR
STARTCHAR eacute
ENCODING 233
SWIDTH 441 0
DWIDTH 4 0
BBX 4 7 0 0
BITMAP
60
00
70
90
F0
90
60
ENDCHAR
STARTCHAR ecircumflex
ENCODING 234
SWIDTH 441 0
DWIDTH 4 0
BBX 4 7 0 0
BITMAP
60
00
70
90
F0
90
60
ENDCHAR
STARTCHAR edieresis
ENCODING 235
SWIDTH 441 0
DWIDTH 4 0
BBX 4 7 0 0
BITMAP
70
00
70
90
F0
90
60
ENDCHAR
STARTCHAR igrave
ENCODING 236
SWIDTH 205 0
DWIDTH 2 0
BBX 1 7 0 0
BITMAP
80
00
80
80
80
80
80
ENDCHAR
STARTCHAR iacute
ENCODING 237
SWIDTH 205 0
DWIDTH 2 0
BBX 2 7 0 0
BITMAP
C0
00
80
80
80
80
80
ENDCHAR
STARTCHAR icircumflex
ENCODING 238
SWIDTH 205 0
DWIDTH 2 0
BBX 2 7 0 0
BITMAP
C0
00
80
80
80
80
80
ENDCHAR
STARTCHAR idieresis
ENCODING 239
SWIDTH 205 0
DWIDTH 2 0
BBX 3 7 -1 0
BITMAP
E0
00
40
40
40
40
40
ENDCHAR
STARTCHAR eth
ENCODING 240
SWIDTH 470 0
DWIDTH 5 0
BBX 4 7 0 0
BITMAP
60
70
10
70
90
90
70
ENDCHAR
STARTCHAR ntilde
ENCODING 241
SWIDTH 470 0
DWIDTH 5 0
BBX 4 7 0 0
BITMAP
70
00
F0
90
90
90
90
ENDCHAR
STARTCHAR ograve
ENCODING 242
SWIDTH 470 0
DWIDTH 5 0
BBX 4 7 0 0
BITMAP
60
00
70
90
90
90
60
ENDCHAR
STARTCHAR oacute
ENCODING 243
SWIDTH 470 0
DWIDTH 5 0
BBX 4 7 0 0
BITMAP
60
00
70
90
90
90
60
ENDCHAR
STARTCHAR ocircumflex
ENCODING 244
SWIDTH 470 0
DWIDTH 5 0
BBX 4 7 0 0
BITMAP
60
00
70
90
90
90
60
ENDCHAR
STARTCHAR otilde
ENCODING 245
SWIDTH 470 0
DWIDTH 5 0
BBX 4 7 0 0
BITMAP
70
00
70
90
90
90
60
ENDCHAR
STARTCHAR odieresis
ENCODING 246
SWIDTH 470 0
DWIDTH 5 0
BBX 4 7 0 0
BITMAP
70
00
70
90
90
90
60
ENDCHAR
STARTCHAR divide
ENCODING 247
SWIDTH 500 0
DWIDTH 5 0
BBX 4 5 0 1
BITMAP
20
00
F0
00
20
ENDCHAR
STARTCHAR oslash
ENCODING 248
SWIDTH 470 0
DWIDTH 5 0
BBX 5 5 0 0
BITMAP
78
90
B0
D0
F0
ENDCHAR
STARTCHAR ugrave
ENCODING 249
SWIDTH 470 0
DWIDTH 5 0
BBX 4 7 0 0
BITMAP
60
00
90
90
90
90
70
ENDCHAR
STARTCHAR uacute
ENCODING 250
SWIDTH 470 0
DWIDTH 5 0
BBX 4 7 0 0
BITMAP
60
00
90
90
90
90
70
ENDCHAR
STARTCHAR ucircumflex
ENCODING 251
SWIDTH 470 0
DWIDTH 5 0
BBX 4 7 0 0
BITMAP
60
00
90
90
90
90
70
ENDCHAR
STARTCHAR udieresis
ENCODING 252
SWIDTH 470 0
DWIDTH 5 0
BBX 4 7 0 0
BITMAP
70
00
90
90
90
90
70
ENDCHAR
STARTCHAR yacute
ENCODING 253
SWIDTH 470 0
DWIDTH 5 0
BBX 4 9 0 -2
BITMAP
20
40
90
90
90
70
60
40
80
ENDCHAR
STARTCHAR thorn
ENCODING 254
SWIDTH 470 0
DWIDTH 5 0
BBX 4 9 0 -2
BITMAP
80
80
A0
D0
90
90
F0
80
80
ENDCHAR
STARTCHAR ydieresis
ENCODING 255
SWIDTH 470 0
DWIDTH 5 0
BBX 4 9 0 -2
BITMAP
70
60
90
90
90
70
60
40
80
ENDCHAR
STARTCHAR Amacron
ENCODING 256
SWIDTH 470 0
DWIDTH 5 0
BBX 4 8 0 0
BITMAP
70
20
70
D0
90
F0
90
90
ENDCHAR
STARTCHAR amacron
ENCODING 257
SWIDTH 470 0
DWIDTH 5 0
BBX 4 7 0 0
BITMAP
70
00
70
90
70
90
70
ENDCHAR
STARTCHAR Abreve
ENCODING 258
SWIDTH 470 0
DWIDTH 5 0
BBX 4 8 0 0
BITMAP
60
20
70
D0
90
F0
90
90
ENDCHAR
STARTCHAR abreve
ENCODING 259
SWIDTH 470 0
DWIDTH 5 0
BBX 4 7 0 0
BITMAP
60
00
70
90
70
90
70
ENDCHAR
STARTCHAR Aogonek
ENCODING 260
SWIDTH 470 0
DWIDTH 5 0
BBX 4 9 0 -2
BITMAP
20
70
D0
90
90
F0
90
10
10
ENDCHAR
STARTCHAR aogonek
ENCODING 261
SWIDTH 470 0
DWIDTH 5 0
BBX 4 7 0 -2
BITMAP
60
90
10
70
F0
10
30
ENDCHAR
STARTCHAR Cacute
ENCODING 262
SWIDTH 470 0
DWIDTH 5 0
BBX 4 9 0 0
BITMAP
20
20
60
D0
80
80
80
D0
70
ENDCHAR
STARTCHAR cacute
ENCODING 263
SWIDTH 441 0
DWIDTH 4 0
BBX 4 7 0 0
BITMAP
60
00
70
90
80
90
60
ENDCHAR
STARTCHAR Cdotaccent
ENCODING 266
SWIDTH 470 0
DWIDTH 5 0
BBX 4 8 0 0
BITMAP
20
60
D0
80
80
80
D0
70
ENDCHAR
STARTCHAR cdotaccent
ENCODING 267
SWIDTH 441 0
DWIDTH 4 0
BBX 4 7 0 0
BITMAP
20
00
70
90
80
90
60
ENDCHAR
STARTCHAR Ccaron
ENCODING 268
SWIDTH 470 0
DWIDTH 5 0
BBX 4 9 0 0
BITMAP
60
20
60
D0
80
80
80
D0
70
ENDCHAR
STARTCHAR ccaron
ENCODING 269
SWIDTH 441 0
DWIDTH 4 0
BBX 4 7 0 0
BITMAP
60
00
70
90
80
90
60
ENDCHAR
STARTCHAR Dcaron
ENCODING 270
SWIDTH 470 0
DWIDTH 5 0
BBX 4 9 0 0
BITMAP
60
20
E0
90
90
90
90
90
F0
ENDCHAR
STARTCHAR dcaron
ENCODING 271
SWIDTH 588 0
DWIDTH 6 0
BBX 6 7 0 0
BITMAP
14
18
70
90
90
90
70
ENDCHAR
STARTCHAR Dcroat
ENCODING 272
SWIDTH 500 0
DWIDTH 5 0
BBX 4 7 0 0
BITMAP
70
50
50
F0
50
50
70
ENDCHAR
STARTCHAR dcroat
ENCODING 273
SWIDTH 470 0
DWIDTH 5 0
BBX 5 7 0 0
BITMAP
10
38
10
70
90
90
70
ENDCHAR
STARTCHAR Emacron
ENCODING 274
SWIDTH 441 0
DWIDTH 4 0
BBX 4 8 0 0
BITMAP
60
F0
80
80
E0
80
80
F0
ENDCHAR
STARTCHAR emacron
ENCODING 275
SWIDTH 441 0
DWIDTH 4 0
BBX 4 7 0 0
BITMAP
70
00
70
90
F0
90
60
ENDCHAR
STARTCHAR Edotaccent
ENCODING 278
SWIDTH 441 0
DWIDTH 4 0
BBX 4 8 0 0
BITMAP
60
F0
80
80
E0
80
80
F0
ENDCHAR
STARTCHAR edotaccent
ENCODING 279
SWIDTH 441 0
DWIDTH 4 0
BBX 4 7 0 0
BITMAP
20
00
70
90
F0
90
60
ENDCHAR
STARTCHAR Eogonek
ENCODING 280
SWIDTH 441 0
DWIDTH 4 0
BBX 4 9 0 -2
BITMAP
F0
80
80
80
E0
80
F0
20
60
ENDCHAR
STARTCHAR eogonek
ENCODING 281
SWIDTH 441 0
DWIDTH 4 0
BBX 4 7 0 -2
BITMAP
60
90
F0
80
D0
20
60
ENDCHAR
STARTCHAR Ecaron
ENCODING 282
SWIDTH 441 0
DWIDTH 4 0
BBX 4 9 0 0
BITMAP
60
20
F0
80
80
E0
80
80
F0
ENDCHAR
STARTCHAR ecaron
ENCODING 283
SWIDTH 441 0
DWIDTH 4 0
BBX 4 7 0 0
BITMAP
60
00
70
90
F0
90
60
ENDCHAR
STARTCHAR Gbreve
ENCODING 286
SWIDTH 470 0
DWIDTH 5 0
BBX 4 8 0 0
BITMAP
60
60
D0
80
B0
90
D0
70
ENDCHAR
STARTCHAR gbreve
ENCODING 287
SWIDTH 470 0
DWIDTH 5 0
BBX 4 9 0 -2
BITMAP
60
20
70
90
90
90
70
90
70
ENDCHAR
STARTCHAR Gdotaccent
ENCODING 288
SWIDTH 470 0
DWIDTH 5 0
BBX 4 8 0 0
BITMAP
20
60
D0
80
B0
90
D0
70
ENDCHAR
STARTCHAR gdotaccent
ENCODING 289
SWIDTH 470 0
DWIDTH 5 0
BBX 4 9 0 -2
BITMAP
60
20
70
90
90
90
70
90
70
ENDCHAR
STARTCHAR uni0122
ENCODING 290
SWIDTH 470 0
DWIDTH 5 0
BBX 4 10 0 -3
BITMAP
60
50
90
80
B0
D0
F0
00
20
20
ENDCHAR
STARTCHAR uni0123
ENCODING 291
SWIDTH 470 0
DWIDTH 5 0
BBX 4 9 0 -2
BITMAP
20
00
70
90
90
90
70
90
70
ENDCHAR
STARTCHAR Hbar
ENCODING 294
SWIDTH 529 0
DWIDTH 5 0
BBX 5 7 0 0
BITMAP
50
F8
50
70
50
50
50
ENDCHAR
STARTCHAR hbar
ENCODING 295
SWIDTH 500 0
DWIDTH 5 0
BBX 4 7 0 0
BITMAP
40
E0
40
70
50
50
50
ENDCHAR
STARTCHAR Imacron
ENCODING 298
SWIDTH 205 0
DWIDTH 2 0
BBX 2 8 0 0
BITMAP
C0
80
80
80
80
80
80
80
ENDCHAR
STARTCHAR imacron
ENCODING 299
SWIDTH 205 0
DWIDTH 2 0
BBX 2 7 0 0
BITMAP
C0
00
80
80
80
80
80
ENDCHAR
STARTCHAR Iogonek
ENCODING 302
SWIDTH 205 0
DWIDTH 2 0
BBX 2 9 0 -2
BITMAP
80
80
80
80
80
80
80
80
C0
ENDCHAR
STARTCHAR iogonek
ENCODING 303
SWIDTH 205 0
DWIDTH 2 0
BBX 2 9 0 -2
BITMAP
80
80
80
80
80
80
80
80
C0
ENDCHAR
STARTCHAR Idotaccent
ENCODING 304
SWIDTH 205 0
DWIDTH 2 0
BBX 1 8 0 0
BITMAP
80
80
80
80
80
80
80
80
ENDCHAR
STARTCHAR dotlessi
ENCODING 305
SWIDTH 205 0
DWIDTH 2 0
BBX 1 5 0 0
BITMAP
80
80
80
80
80
ENDCHAR
STARTCHAR IJ
ENCODING 306
SWIDTH 647 0
DWIDTH 6 0
BBX 6 7 0 0
BITMAP
84
84
84
84
84
BC
9C
ENDCHAR
STARTCHAR ij
ENCODING 307
SWIDTH 441 0
DWIDTH 4 0
BBX 4 8 0 -2
BITMAP
90
80
90
90
90
90
10
30
ENDCHAR
STARTCHAR uni0136
ENCODING 310
SWIDTH 441 0
DWIDTH 4 0
BBX 4 10 0 -3
BITMAP
90
90
90
B0
F0
B0
90
00
20
20
ENDCHAR
STARTCHAR uni0137
ENCODING 311
SWIDTH 411 0
DWIDTH 4 0
BBX 4 10 0 -3
BITMAP
80
80
B0
B0
E0
B0
B0
00
40
40
ENDCHAR
STARTCHAR Lacute
ENCODING 313
SWIDTH 382 0
DWIDTH 4 0
BBX 3 9 0 0
BITMAP
40
40
80
80
80
80
80
80
E0
ENDCHAR
STARTCHAR lacute
ENCODING 314
SWIDTH 205 0
DWIDTH 2 0
BBX 2 9 0 0
BITMAP
40
80
80
80
80
80
80
80
80
ENDCHAR
STARTCHAR uni013B
ENCODING 315
SWIDTH 382 0
DWIDTH 4 0
BBX 3 10 0 -3
BITMAP
80
80
80
80
80
80
E0
00
40
40
ENDCHAR
STARTCHAR uni013C
ENCODING 316
SWIDTH 205 0
DWIDTH 2 0
BBX 1 10 0 -3
BITMAP
80
80
80
80
80
80
80
00
80
80
ENDCHAR
STARTCHAR Lcaron
ENCODING 317
SWIDTH 382 0
DWIDTH 4 0
BBX 3 7 0 0
BITMAP
A0
A0
80
80
80
80
E0
ENDCHAR
STARTCHAR lcaron
ENCODING 318
SWIDTH 323 0
DWIDTH 3 0
BBX 3 7 0 0
BITMAP
A0
A0
80
80
80
80
80
ENDCHAR
STARTCHAR Lslash
ENCODING 321
SWIDTH 500 0
DWIDTH 5 0
BBX 4 7 0 0
BITMAP
60
60
70
60
60
E0
70
ENDCHAR
STARTCHAR lslash
ENCODING 322
SWIDTH 382 0
DWIDTH 4 0
BBX 4 7 0 0
BITMAP
40
40
70
40
C0
40
40
ENDCHAR
STARTCHAR Nacute
ENCODING 323
SWIDTH 529 0
DWIDTH 5 0
BBX 5 9 0 0
BITMAP
10
20
C8
C8
E8
A8
B8
98
98
ENDCHAR
STARTCHAR nacute
ENCODING 324
SWIDTH 470 0
DWIDTH 5 0
BBX 4 7 0 0
BITMAP
60
00
F0
90
90
90
90
ENDCHAR
STARTCHAR uni0145
ENCODING 325
SWIDTH 529 0
DWIDTH 5 0
BBX 5 10 0 -3
BITMAP
C8
C8
C8
A8
B8
B8
98
00
20
20
ENDCHAR
STARTCHAR uni0146
ENCODING 326
SWIDTH 470 0
DWIDTH 5 0
BBX 4 8 0 -3
BITMAP
A0
D0
90
90
90
00
20
20
ENDCHAR
STARTCHAR Ncaron
ENCODING 327
SWIDTH 529 0
DWIDTH 5 0
BBX 5 9 0 0
BITMAP
30
20
C8
C8
E8
A8
B8
98
98
ENDCHAR
STARTCHAR ncaron
ENCODING 328
SWIDTH 470 0
DWIDTH 5 0
BBX 4 7 0 0
BITMAP
60
00
F0
90
90
90
90
ENDCHAR
STARTCHAR Eng
ENCODING 330
SWIDTH 529 0
DWIDTH 5 0
BBX 5 8 0 -1
BITMAP
C8
C8
E8
A8
B8
98
98
10
ENDCHAR
STARTCHAR eng
ENCODING 331
SWIDTH 470 0
DWIDTH 5 0
BBX 4 7 0 -2
BITMAP
F0
90
90
90
90
10
10
ENDCHAR
STARTCHAR Omacron
ENCODING 332
SWIDTH 470 0
DWIDTH 5 0
BBX 4 8 0 0
BITMAP
70
60
D0
90
90
90
D0
70
ENDCHAR
STARTCHAR omacron
ENCODING 333
SWIDTH 470 0
DWIDTH 5 0
BBX 4 7 0 0
BITMAP
70
00
70
90
90
90
60
ENDCHAR
STARTCHAR Ohungarumlaut
ENCODING 336
SWIDTH 470 0
DWIDTH 5 0
BBX 4 9 0 0
BITMAP
50
50
60
D0
90
90
90
D0
70
ENDCHAR
STARTCHAR ohungarumlaut
ENCODING 337
SWIDTH 470 0
DWIDTH 5 0
BBX 4 7 0 0
BITMAP
70
00
70
90
90
90
60
ENDCHAR
STARTCHAR OE
ENCODING 338
SWIDTH 676 0
DWIDTH 7 0
BBX 6 7 0 0
BITMAP
6C
D0
90
9C
90
D0
7C
ENDCHAR
STARTCHAR oe
ENCODING 339
SWIDTH 735 0
DWIDTH 7 0
BBX 7 5 0 0
BITMAP
7C
92
9E
92
6C
ENDCHAR
STARTCHAR Racute
ENCODING 340
SWIDTH 470 0
DWIDTH 5 0
BBX 4 9 0 0
BITMAP
20
40
E0
90
90
90
F0
90
90
ENDCHAR
STARTCHAR racute
ENCODING 341
SWIDTH 352 0
DWIDTH 4 0
BBX 4 7 0 0
BITMAP
60
00
F0
A0
80
80
80
ENDCHAR
STARTCHAR uni0156
ENCODING 342
SWIDTH 470 0
DWIDTH 5 0
BBX 4 10 0 -3
BITMAP
E0
90
90
90
F0
90
90
00
20
20
ENDCHAR
STARTCHAR uni0157
ENCODING 343
SWIDTH 352 0
DWIDTH 4 0
BBX 4 8 0 -3
BITMAP
B0
E0
80
80
80
00
40
80
ENDCHAR
STARTCHAR Rcaron
ENCODING 344
SWIDTH 470 0
DWIDTH 5 0
BBX 4 9 0 0
BITMAP
60
20
E0
90
90
90
F0
90
90
ENDCHAR
STARTCHAR rcaron
ENCODING 345
SWIDTH 352 0
DWIDTH 4 0
BBX 4 7 0 0
BITMAP
60
00
F0
A0
80
80
80
ENDCHAR
STARTCHAR Sacute
ENCODING 346
SWIDTH 500 0
DWIDTH 5 0
BBX 4 9 0 0
BITMAP
20
20
70
D0
80
70
10
D0
70
ENDCHAR
STARTCHAR sacute
ENCODING 347
SWIDTH 470 0
DWIDTH 5 0
BBX 4 7 0 0
BITMAP
60
00
70
90
70
90
60
ENDCHAR
STARTCHAR Scedilla
ENCODING 350
SWIDTH 500 0
DWIDTH 5 0
BBX 4 9 0 -2
BITMAP
70
50
90
80
70
D0
70
20
60
ENDCHAR
STARTCHAR scedilla
ENCODING 351
SWIDTH 470 0
DWIDTH 5 0
BBX 4 7 0 -2
BITMAP
60
90
60
10
D0
20
60
ENDCHAR
STARTCHAR Scaron
ENCODING 352
SWIDTH 500 0
DWIDTH 5 0
BBX 4 9 0 0
BITMAP
60
20
70
D0
80
70
10
D0
70
ENDCHAR
STARTCHAR scaron
ENCODING 353
SWIDTH 470 0
DWIDTH 5 0
BBX 4 7 0 0
BITMAP
60
00
70
90
70
90
60
ENDCHAR
STARTCHAR Tcaron
ENCODING 356
SWIDTH 441 0
DWIDTH 4 0
BBX 4 9 0 0
BITMAP
60
20
F0
60
60
60
60
60
60
ENDCHAR
STARTCHAR tcaron
ENCODING 357
SWIDTH 411 0
DWIDTH 4 0
BBX 4 7 0 0
BITMAP
10
40
E0
40
40
40
20
ENDCHAR
STARTCHAR Umacron
ENCODING 362
SWIDTH 470 0
DWIDTH 5 0
BBX 4 8 0 0
BITMAP
70
90
90
90
90
90
D0
70
ENDCHAR
STARTCHAR umacron
ENCODING 363
SWIDTH 470 0
DWIDTH 5 0
BBX 4 7 0 0
BITMAP
70
00
90
90
90
90
70
ENDCHAR
STARTCHAR Ubreve
ENCODING 364
SWIDTH 470 0
DWIDTH 5 0
BBX 4 8 0 0
BITMAP
60
90
90
90
90
90
D0
70
ENDCHAR
STARTCHAR ubreve
ENCODING 365
SWIDTH 470 0
DWIDTH 5 0
BBX 4 7 0 0
BITMAP
60
00
90
90
90
90
70
ENDCHAR
STARTCHAR Uring
ENCODING 366
SWIDTH 470 0
DWIDTH 5 0
BBX 4 9 0 0
BITMAP
60
20
90
90
90
90
90
D0
70
ENDCHAR
STARTCHAR uring
ENCODING 367
SWIDTH 470 0
DWIDTH 5 0
BBX 4 8 0 0
BITMAP
20
60
00
90
90
90
90
70
ENDCHAR
STARTCHAR Uhungarumlaut
ENCODING 368
SWIDTH 470 0
DWIDTH 5 0
BBX 4 9 0 0
BITMAP
50
50
90
90
90
90
90
D0
70
ENDCHAR
STARTCHAR uhungarumlaut
ENCODING 369
SWIDTH 470 0
DWIDTH 5 0
BBX 4 7 0 0
BITMAP
70
00
90
90
90
90
70
ENDCHAR
STARTCHAR Uogonek
ENCODING 370
SWIDTH 470 0
DWIDTH 5 0
BBX 4 9 0 -2
BITMAP
90
90
90
90
90
90
70
20
60
ENDCHAR
STARTCHAR uogonek
ENCODING 371
SWIDTH 470 0
DWIDTH 5 0
BBX 4 7 0 -2
BITMAP
90
90
90
90
70
10
30
ENDCHAR
STARTCHAR Wcircumflex
ENCODING 372
SWIDTH 617 0
DWIDTH 6 0
BBX 6 8 0 0
BITMAP
30
BC
BC
BC
BC
BC
78
48
ENDCHAR
STARTCHAR wcircumflex
ENCODING 373
SWIDTH 617 0
DWIDTH 6 0
BBX 6 7 0 0
BITMAP
30
00
BC
BC
BC
FC
48
ENDCHAR
STARTCHAR Ycircumflex
ENCODING 374
SWIDTH 500 0
DWIDTH 5 0
BBX 4 8 0 0
BITMAP
60
90
90
90
50
60
20
20
ENDCHAR
STARTCHAR ycircumflex
ENCODING 375
SWIDTH 470 0
DWIDTH 5 0
BBX 4 9 0 -2
BITMAP
60
60
90
90
90
70
60
40
80
ENDCHAR
STARTCHAR Ydieresis
ENCODING 376
SWIDTH 500 0
DWIDTH 5 0
BBX 4 8 0 0
BITMAP
50
90
90
90
50
60
20
20
ENDCHAR
STARTCHAR Zacute
ENCODING 377
SWIDTH 500 0
DWIDTH 5 0
BBX 4 9 0 0
BITMAP
20
20
F0
10
10
20
40
C0
F0
ENDCHAR
STARTCHAR zacute
ENCODING 378
SWIDTH 441 0
DWIDTH 4 0
BBX 4 7 0 0
BITMAP
60
00
F0
30
60
40
F0
ENDCHAR
STARTCHAR Zdotaccent
ENCODING 379
SWIDTH 500 0
DWIDTH 5 0
BBX 4 8 0 0
BITMAP
20
F0
10
10
20
40
C0
F0
ENDCHAR
STARTCHAR zdotaccent
ENCODING 380
SWIDTH 441 0
DWIDTH 4 0
BBX 4 7 0 0
BITMAP
60
00
F0
30
60
40
F0
ENDCHAR
STARTCHAR Zcaron
ENCODING 381
SWIDTH 500 0
DWIDTH 5 0
BBX 4 9 0 0
BITMAP
60
20
F0
10
10
20
40
C0
F0
ENDCHAR
STARTCHAR zcaron
ENCODING 382
SWIDTH 441 0
DWIDTH 4 0
BBX 4 7 0 0
BITMAP
60
00
F0
30
60
40
F0
ENDCHAR
STARTCHAR uni0218
ENCODING 536
SWIDTH 500 0
DWIDTH 5 0
BBX 4 10 0 -3
BITMAP
70
50
90
F0
10
D0
70
00
20
20
ENDCHAR
STARTCHAR uni0219
ENCODING 537
SWIDTH 470 0
DWIDTH 5 0
BBX 4 8 0 -3
BITMAP
60
90
60
10
F0
00
20
20
ENDCHAR
STARTCHAR uni021A
ENCODING 538
SWIDTH 441 0
DWIDTH 4 0
BBX 4 10 0 -3
BITMAP
F0
60
60
60
60
60
60
00
20
20
ENDCHAR
STARTCHAR uni021B
ENCODING 539
SWIDTH 352 0
DWIDTH 4 0
BBX 3 9 0 -3
BITMAP
40
40
E0
40
40
60
00
40
40
ENDCHAR
STARTCHAR uni0237
ENCODING 567
SWIDTH 235 0
DWIDTH 2 0
BBX 2 6 0 -2
BITMAP
40
40
40
40
40
80
ENDCHAR
STARTCHAR circumflex
ENCODING 710
SWIDTH 235 0
DWIDTH 2 0
BBX 2 2 0 6
BITMAP
40
C0
ENDCHAR
STARTCHAR caron
ENCODING 711
SWIDTH 235 0
DWIDTH 2 0
BBX 2 2 0 6
BITMAP
C0
40
ENDCHAR
STARTCHAR breve
ENCODING 728
SWIDTH 235 0
DWIDTH 2 0
BBX 2 1 0 6
BITMAP
C0
ENDCHAR
STARTCHAR dotaccent
ENCODING 729
SWIDTH 176 0
DWIDTH 2 0
BBX 1 1 0 6
BITMAP
80
ENDCHAR
STARTCHAR ring
ENCODING 730
SWIDTH 235 0
DWIDTH 2 0
BBX 2 2 0 6
BITMAP
C0
40
ENDCHAR
STARTCHAR ogonek
ENCODING 731
SWIDTH 235 0
DWIDTH 2 0
BBX 2 2 0 -2
BITMAP
C0
40
ENDCHAR
STARTCHAR tilde
ENCODING 732
SWIDTH 294 0
DWIDTH 3 0
BBX 3 1 0 6
BITMAP
E0
ENDCHAR
STARTCHAR hungarumlaut
ENCODING 733
SWIDTH 411 0
DWIDTH 4 0
BBX 4 2 0 6
BITMAP
50
A0
ENDCHAR
STARTCHAR gravecomb
ENCODING 768
SWIDTH 0 0
DWIDTH 0 0
BBX 2 2 -1 6
BITMAP
80
40
ENDCHAR
STARTCHAR acutecomb
ENCODING 769
SWIDTH 0 0
DWIDTH 0 0
BBX 2 2 -1 6
BITMAP
40
80
ENDCHAR
STARTCHAR uni0302
ENCODING 770
SWIDTH 0 0
DWIDTH 0 0
BBX 2 2 -1 6
BITMAP
80
C0
ENDCHAR
STARTCHAR tildecomb
ENCODING 771
SWIDTH 0 0
DWIDTH 0 0
BBX 2 1 -1 6
BITMAP
C0
ENDCHAR
STARTCHAR uni0304
ENCODING 772
SWIDTH 0 0
DWIDTH 0 0
BBX 2 1 -1 6
BITMAP
C0
ENDCHAR
STARTCHAR uni0306
ENCODING 774
SWIDTH 0 0
DWIDTH 0 0
BBX 2 1 -1 6
BITMAP
C0
ENDCHAR
STARTCHAR uni0307
ENCODING 775
SWIDTH 0 0
DWIDTH 0 0
BBX 2 1 -1 6
BITMAP
C0
ENDCHAR
STARTCHAR uni0308
ENCODING 776
SWIDTH 0 0
DWIDTH 0 0
BBX 2 1 -1 6
BITMAP
C0
ENDCHAR
STARTCHAR uni030A
ENCODING 778
SWIDTH 0 0
DWIDTH 0 0
BBX 2 2 -1 6
BITMAP
C0
C0
ENDCHAR
STARTCHAR uni030B
ENCODING 779
SWIDTH 0 0
DWIDTH 0 0
BBX 4 2 -2 6
BITMAP
50
A0
ENDCHAR
STARTCHAR uni030C
ENCODING 780
SWIDTH 0 0
DWIDTH 0 0
BBX 2 2 -1 6
BITMAP
C0
80
ENDCHAR
STARTCHAR uni0312
ENCODING 786
SWIDTH 0 0
DWIDTH 0 0
BBX 1 2 0 6
BITMAP
80
80
ENDCHAR
STARTCHAR uni0326
ENCODING 806
SWIDTH 0 0
DWIDTH 0 0
BBX 1 2 0 -3
BITMAP
80
80
ENDCHAR
STARTCHAR uni0327
ENCODING 807
SWIDTH 0 0
DWIDTH 0 0
BBX 2 2 -1 -2
BITMAP
C0
80
ENDCHAR
STARTCHAR uni0328
ENCODING 808
SWIDTH 0 0
DWIDTH 0 0
BBX 2 2 -1 -2
BITMAP
C0
40
ENDCHAR
STARTCHAR Wgrave
ENCODING 7808
SWIDTH 617 0
DWIDTH 6 0
BBX 6 9 0 0
BITMAP
20
10
BC
BC
BC
BC
BC
78
48
ENDCHAR
STARTCHAR wgrave
ENCODING 7809
SWIDTH 617 0
DWIDTH 6 0
BBX 6 7 0 0
BITMAP
30
00
BC
BC
BC
FC
48
ENDCHAR
STARTCHAR Wacute
ENCODING 7810
SWIDTH 617 0
DWIDTH 6 0
BBX 6 9 0 0
BITMAP
10
20
BC
BC
BC
BC
BC
78
48
ENDCHAR
STARTCHAR wacute
ENCODING 7811
SWIDTH 617 0
DWIDTH 6 0
BBX 6 7 0 0
BITMAP
30
00
BC
BC
BC
FC
48
ENDCHAR
STARTCHAR Wdieresis
ENCODING 7812
SWIDTH 617 0
DWIDTH 6 0
BBX 6 8 0 0
BITMAP
70
BC
BC
BC
BC
BC
78
48
ENDCHAR
STARTCHAR wdieresis
ENCODING 7813
SWIDTH 617 0
DWIDTH 6 0
BBX 6 7 0 0
BITMAP
70
00
BC
BC
BC
FC
48
ENDCHAR
STARTCHAR uni1E9E
ENCODING 7838
SWIDTH 500 0
DWIDTH 5 0
BBX 4 7 0 0
BITMAP
F0
90
B0
A0
90
B0
B0
ENDCHAR
STARTCHAR Ygrave
ENCODING 7922
SWIDTH 500 0
DWIDTH 5 0
BBX 4 9 0 0
BITMAP
20
20
90
90
90
50
60
20
20
ENDCHAR
STARTCHAR ygrave
ENCODING 7923
SWIDTH 470 0
DWIDTH 5 0
BBX 4 9 0 -2
BITMAP
60
20
90
90
90
70
60
40
80
ENDCHAR
STARTCHAR uni200A
ENCODING 8202
SWIDTH 29 0
DWIDTH 0 0
BBX 1 1 0 0
BITMAP
00
ENDCHAR
STARTCHAR endash
ENCODING 8211
SWIDTH 470 0
DWIDTH 5 0
BBX 4 1 0 3
BITMAP
F0
ENDCHAR
STARTCHAR emdash
ENCODING 8212
SWIDTH 617 0
DWIDTH 6 0
BBX 6 1 0 3
BITMAP
FC
ENDCHAR
STARTCHAR quoteleft
ENCODING 8216
SWIDTH 205 0
DWIDTH 2 0
BBX 1 3 0 4
BITMAP
80
80
80
ENDCHAR
STARTCHAR quoteright
ENCODING 8217
SWIDTH 205 0
DWIDTH 2 0
BBX 1 2 0 5
BITMAP
80
80
ENDCHAR
STARTCHAR quotesinglbase
ENCODING 8218
SWIDTH 205 0
DWIDTH 2 0
BBX 1 2 0 -1
BITMAP
80
80
ENDCHAR
STARTCHAR quotedblleft
ENCODING 8220
SWIDTH 382 0
DWIDTH 4 0
BBX 3 3 0 4
BITMAP
60
A0
A0
ENDCHAR
STARTCHAR quotedblright
ENCODING 8221
SWIDTH 382 0
DWIDTH 4 0
BBX 3 2 0 5
BITMAP
A0
A0
ENDCHAR
STARTCHAR quotedblbase
ENCODING 8222
SWIDTH 382 0
DWIDTH 4 0
BBX 3 2 0 -1
BITMAP
A0
A0
ENDCHAR
STARTCHAR bullet
ENCODING 8226
SWIDTH 352 0
DWIDTH 4 0
BBX 3 3 0 2
BITMAP
60
E0
40
ENDCHAR
STARTCHAR ellipsis
ENCODING 8230
SWIDTH 617 0
DWIDTH 6 0
BBX 6 1 0 0
BITMAP
BC
ENDCHAR
STARTCHAR guilsinglleft
ENCODING 8249
SWIDTH 323 0
DWIDTH 3 0
BBX 3 4 0 1
BITMAP
60
80
40
20
ENDCHAR
STARTCHAR guilsinglright
ENCODING 8250
SWIDTH 323 0
DWIDTH 3 0
BBX 3 4 0 1
BITMAP
80
60
40
80
ENDCHAR
STARTCHAR Euro
ENCODING 8364
SWIDTH 529 0
DWIDTH 5 0
BBX 5 7 0 0
BITMAP
30
58
E0
40
E0
58
70
ENDCHAR
STARTCHAR trademark
ENCODING 8482
SWIDTH 1088 0
DWIDTH 11 0
BBX 10 6 0 0
BITMAP
F440
66C0
67C0
6540
6440
6440
ENDCHAR
STARTCHAR minus
ENCODING 8722
SWIDTH 470 0
DWIDTH 5 0
BBX 4 1 0 2
BITMAP
F0
ENDCHAR
STARTCHAR uni2698
ENCODING 9880
SWIDTH 441 0
DWIDTH 4 0
BBX 4 6 0 0
BITMAP
20
50
60
00
B0
60
ENDCHAR
STARTCHAR .notdef
ENCODING -1
SWIDTH 411 0
DWIDTH 4 0
BBX 4 6 0 0
BITMAP
F0
90
90
90
90
F0
ENDCHAR
STARTCHAR uni004A0301
ENCODING -1
SWIDTH 441 0
DWIDTH 4 0
BBX 4 9 0 0
BITMAP
10
10
10
10
10
10
10
F0
70
ENDCHAR
STARTCHAR i.loclTRK
ENCODING -1
SWIDTH 205 0
DWIDTH 2 0
BBX 1 7 0 0
BITMAP
80
00
80
80
80
80
80
ENDCHAR
STARTCHAR uni006A0301
ENCODING -1
SWIDTH 235 0
DWIDTH 2 0
BBX 2 9 0 -2
BITMAP
40
00
00
40
40
40
40
40
80
ENDCHAR
STARTCHAR zero.tf
ENCODING -1
SWIDTH 441 0
DWIDTH 4 0
BBX 4 7 0 0
BITMAP
60
F0
90
90
90
F0
70
ENDCHAR
STARTCHAR one.tf
ENCODING -1
SWIDTH 441 0
DWIDTH 4 0
BBX 4 7 0 0
BITMAP
60
60
60
60
60
60
F0
ENDCHAR
STARTCHAR two.tf
ENCODING -1
SWIDTH 441 0
DWIDTH 4 0
BBX 4 7 0 0
BITMAP
60
F0
10
30
60
C0
F0
ENDCHAR
STARTCHAR three.tf
ENCODING -1
SWIDTH 441 0
DWIDTH 4 0
BBX 4 7 0 0
BITMAP
60
F0
10
70
30
F0
70
ENDCHAR
STARTCHAR four.tf
ENCODING -1
SWIDTH 441 0
DWIDTH 4 0
BBX 4 7 0 0
BITMAP
10
30
50
D0
F0
10
10
ENDCHAR
STARTCHAR five.tf
ENCODING -1
SWIDTH 441 0
DWIDTH 4 0
BBX 4 7 0 0
BITMAP
F0
80
80
F0
30
F0
70
ENDCHAR
STARTCHAR six.tf
ENCODING -1
SWIDTH 441 0
DWIDTH 4 0
BBX 4 7 0 0
BITMAP
60
F0
80
F0
F0
F0
70
ENDCHAR
STARTCHAR seven.tf
ENCODING -1
SWIDTH 441 0
DWIDTH 4 0
BBX 4 7 0 0
BITMAP
F0
10
30
30
20
60
60
ENDCHAR
STARTCHAR eight.tf
ENCODING -1
SWIDTH 441 0
DWIDTH 4 0
BBX 4 7 0 0
BITMAP
60
F0
90
70
F0
F0
70
ENDCHAR
STARTCHAR nine.tf
ENCODING -1
SWIDTH 441 0
DWIDTH 4 0
BBX 4 7 0 0
BITMAP
60
F0
90
70
10
F0
70
ENDCHAR
STARTCHAR periodcentered.loclCAT
ENCODING -1
SWIDTH 470 0
DWIDTH 5 0
BBX 1 1 2 3
BITMAP
80
ENDCHAR
STARTCHAR periodcentered.loclCAT.case
ENCODING -1
SWIDTH 470 0
DWIDTH 5 0
BBX 1 1 2 3
BITMAP
80
ENDCHAR
STARTCHAR uni0308.case
ENCODING -1
SWIDTH 0 0
DWIDTH 0 0
BBX 2 1 -1 7
BITMAP
C0
ENDCHAR
STARTCHAR uni0307.case
ENCODING -1
SWIDTH 0 0
DWIDTH 0 0
BBX 2 1 -1 7
BITMAP
C0
ENDCHAR
STARTCHAR gravecomb.case
ENCODING -1
SWIDTH 0 0
DWIDTH 0 0
BBX 2 2 -1 7
BITMAP
80
40
ENDCHAR
STARTCHAR acutecomb.case
ENCODING -1
SWIDTH 0 0
DWIDTH 0 0
BBX 2 2 -1 7
BITMAP
40
80
ENDCHAR
STARTCHAR uni030B.case
ENCODING -1
SWIDTH 0 0
DWIDTH 0 0
BBX 3 2 -1 7
BITMAP
A0
C0
ENDCHAR
STARTCHAR uni0302.case
ENCODING -1
SWIDTH 0 0
DWIDTH 0 0
BBX 2 2 -1 7
BITMAP
80
C0
ENDCHAR
STARTCHAR uni030C.case
ENCODING -1
SWIDTH 0 0
DWIDTH 0 0
BBX 2 2 -1 7
BITMAP
C0
80
ENDCHAR
STARTCHAR uni0306.case
ENCODING -1
SWIDTH 0 0
DWIDTH 0 0
BBX 2 1 -1 7
BITMAP
C0
ENDCHAR
STARTCHAR uni030A.case
ENCODING -1
SWIDTH 0 0
DWIDTH 0 0
BBX 2 2 -1 7
BITMAP
C0
C0
ENDCHAR
STARTCHAR tildecomb.case
ENCODING -1
SWIDTH 0 0
DWIDTH 0 0
BBX 2 1 -1 7
BITMAP
C0
ENDCHAR
STARTCHAR uni0304.case
ENCODING -1
SWIDTH 0 0
DWIDTH 0 0
BBX 2 1 -1 7
BITMAP
C0
ENDCHAR
ENDFONT
